<?xml version="1.0" encoding="UTF-8"?>
<svg id="Calque_2" data-name="Calque 2" xmlns="http://www.w3.org/2000/svg" viewBox="0 0 611.09 592.86">
  <defs>
    <style>
      .cls-1 {
        fill: #dddc00;
      }

      .cls-1, .cls-2, .cls-3, .cls-4, .cls-5 {
        stroke-width: 0px;
      }

      .cls-6 {
        stroke: #004e59;
      }

      .cls-6, .cls-7, .cls-8, .cls-9 {
        fill: none;
        stroke-miterlimit: 10;
      }

      .cls-6, .cls-9 {
        stroke-width: 6.09px;
      }

      .cls-7 {
        stroke: #80a642;
        stroke-width: 5.8px;
      }

      .cls-2 {
        fill: #ea5b0c;
      }

      .cls-3 {
        fill: #fff;
        opacity: .5;
      }

      .cls-4 {
        fill: #80a642;
      }

      .cls-8 {
        stroke: #dddc00;
        stroke-width: 6.91px;
      }

      .cls-5 {
        fill: #004e59;
      }

      .cls-9 {
        stroke: #ea5b0c;
      }
    </style>
  </defs>
  <g id="Calque_1-2" data-name="Calque 1">
    <g>
      <g>
        <circle class="cls-1" cx="545.37" cy="116.09" r="65.72"/>
        <g>
          <path class="cls-5" d="M527.95,140.57h-10.15v-43.6c0-2.99,1.77-4.48,5.32-4.48,1.77,0,3.38.33,4.83.98v47.1Z"/>
          <path class="cls-5" d="M550.83,101.39h-10.92c-1.73,0-2.99-.37-3.78-1.12-.79-.75-1.19-1.82-1.19-3.22,0-1.07.15-2.03.46-2.87.3-.84.55-1.4.73-1.68h36.74c1.77,0,3.04.37,3.81,1.12.77.75,1.16,1.82,1.16,3.22,0,1.03-.15,1.97-.46,2.83-.3.86-.55,1.43-.74,1.71h-15.67v39.19h-10.15v-39.19Z"/>
        </g>
        <path class="cls-3" d="M555.8,64.02c-10.13,1.68-11.3,14.87-6.55,22.71,4.92,8.11,13.57,11.48,22.15,14.24,12.9,4.15,20.14,3.98,25.62,16.88,3.07-4.81-13.54-58.42-41.22-53.83Z"/>
      </g>
      <g>
        <circle class="cls-8" cx="515.84" cy="233.5" r="14.98"/>
        <path class="cls-1" d="M516.03,223.71c-1.94.34-2.14,2.87-1.22,4.37.96,1.55,2.62,2.18,4.27,2.7,2.48.78,3.87.73,4.94,3.2.58-.93-2.69-11.19-8-10.26Z"/>
      </g>
      <g>
        <circle class="cls-7" cx="470.9" cy="200.16" r="26.09"/>
        <path class="cls-4" d="M488.8,204.69c0-6.37,1.63-14.24-2.89-19.65-1.99-2.38-8.7-4.92-11.2-1.79-2.73,3.43,3.02,6.04,5.25,7.43,2.63,1.64,4.47,3.45,5.8,6.34,1.08,2.36,2.1,5.14,3.03,7.67Z"/>
      </g>
      <g>
        <g>
          <path class="cls-5" d="M29.01,550.02h40.62l45.33-268.07,97.48,211.21,35.45-77.17-92.86-214.06c-4.6-10.6-15.05-17.46-26.6-17.46h-33.25c-13.67,0-25.48,9.54-28.35,22.9L.66,514.92c-3.89,18.06,9.88,35.1,28.35,35.1Z"/>
          <path class="cls-2" d="M421.9,184.47h-53.68c-11.23,0-21.41,6.61-25.97,16.87l-129.8,291.81,20.49,51.22c4.51,11.28,20.35,11.64,25.37.58l163.6-360.48Z"/>
          <path class="cls-5" d="M454.92,550.02h-33.02l-49.22-257.1,49.22-108.45,61.54,331.25c3.31,17.83-10.37,34.3-28.51,34.3Z"/>
        </g>
        <polyline class="cls-9" points="230.52 479.14 387.37 143.53 363.24 64.99"/>
        <circle class="cls-2" cx="363.24" cy="64.99" r="12.19"/>
        <circle class="cls-2" cx="456.66" cy="44.68" r="12.19"/>
        <line class="cls-9" x1="237.33" y1="515.83" x2="456.66" y2="44.68"/>
        <circle class="cls-2" cx="497.27" cy="12.19" r="12.19"/>
        <line class="cls-9" x1="261.7" y1="515.83" x2="497.27" y2="12.19"/>
        <polyline class="cls-6" points="425.32 332.45 372.29 445.93 396.42 524.47"/>
        <circle class="cls-5" cx="396.42" cy="524.47" r="12.19"/>
        <circle class="cls-5" cx="303" cy="544.78" r="12.19"/>
        <line class="cls-6" x1="401.84" y1="332.45" x2="303" y2="544.78"/>
        <circle class="cls-5" cx="262.38" cy="580.67" r="12.19"/>
        <line class="cls-6" x1="384.23" y1="316.77" x2="262.38" y2="577.27"/>
      </g>
    </g>
  </g>
</svg>